<svg width="204" height="40" viewBox="0 0 204 40" fill="none" xmlns="http://www.w3.org/2000/svg">
<path d="M0.522727 31V1.90909H17.9659V5.03409H4.04545V14.8636H16.6591V17.9886H4.04545V31H0.522727ZM23.5447 31V9.18182H26.897V31H23.5447ZM25.2493 5.54545C24.5959 5.54545 24.0324 5.32292 23.5589 4.87784C23.0949 4.43277 22.8629 3.89773 22.8629 3.27273C22.8629 2.64773 23.0949 2.11269 23.5589 1.66761C24.0324 1.22254 24.5959 1 25.2493 1C25.9027 1 26.4614 1.22254 26.9254 1.66761C27.3989 2.11269 27.6357 2.64773 27.6357 3.27273C27.6357 3.89773 27.3989 4.43277 26.9254 4.87784C26.4614 5.32292 25.9027 5.54545 25.2493 5.54545ZM36.3892 1.90909V31H33.0369V1.90909H36.3892ZM42.5291 31V9.18182H45.7678V12.5909H46.0518C46.5064 11.4261 47.2403 10.5218 48.2536 9.87784C49.2668 9.22443 50.4837 8.89773 51.9041 8.89773C53.3435 8.89773 54.5414 9.22443 55.4979 9.87784C56.4638 10.5218 57.2166 11.4261 57.7564 12.5909H57.9837C58.5424 11.464 59.3804 10.5691 60.4979 9.90625C61.6153 9.2339 62.9553 8.89773 64.5178 8.89773C66.4685 8.89773 68.0642 9.50852 69.3047 10.7301C70.5452 11.9422 71.1655 13.8314 71.1655 16.3977V31H67.8132V16.3977C67.8132 14.7879 67.3729 13.6373 66.4922 12.946C65.6115 12.2547 64.5746 11.9091 63.3814 11.9091C61.8473 11.9091 60.6589 12.3731 59.8161 13.3011C58.9732 14.2197 58.5518 15.3845 58.5518 16.7955V31H55.1428V16.0568C55.1428 14.8163 54.7403 13.8172 53.9354 13.0597C53.1304 12.2926 52.0935 11.9091 50.8246 11.9091C49.9534 11.9091 49.139 12.1411 48.3814 12.6051C47.6333 13.0691 47.0272 13.7131 46.5632 14.5369C46.1087 15.3513 45.8814 16.2936 45.8814 17.3636V31H42.5291ZM86.1584 31.4545C84.1887 31.4545 82.4605 30.9858 80.9737 30.0483C79.4964 29.1108 78.3411 27.7992 77.5078 26.1136C76.6839 24.428 76.272 22.4583 76.272 20.2045C76.272 17.9318 76.6839 15.9479 77.5078 14.2528C78.3411 12.5578 79.4964 11.2415 80.9737 10.304C82.4605 9.36648 84.1887 8.89773 86.1584 8.89773C88.1281 8.89773 89.8516 9.36648 91.3288 10.304C92.8156 11.2415 93.9709 12.5578 94.7947 14.2528C95.6281 15.9479 96.0447 17.9318 96.0447 20.2045C96.0447 22.4583 95.6281 24.428 94.7947 26.1136C93.9709 27.7992 92.8156 29.1108 91.3288 30.0483C89.8516 30.9858 88.1281 31.4545 86.1584 31.4545ZM86.1584 28.4432C87.6546 28.4432 88.8857 28.0597 89.8516 27.2926C90.8175 26.5256 91.5324 25.517 91.9964 24.267C92.4605 23.017 92.6925 21.6629 92.6925 20.2045C92.6925 18.7462 92.4605 17.3873 91.9964 16.1278C91.5324 14.8684 90.8175 13.8504 89.8516 13.0739C88.8857 12.2973 87.6546 11.9091 86.1584 11.9091C84.6622 11.9091 83.4311 12.2973 82.4652 13.0739C81.4993 13.8504 80.7843 14.8684 80.3203 16.1278C79.8563 17.3873 79.6243 18.7462 79.6243 20.2045C79.6243 21.6629 79.8563 23.017 80.3203 24.267C80.7843 25.517 81.4993 26.5256 82.4652 27.2926C83.4311 28.0597 84.6622 28.4432 86.1584 28.4432ZM109.969 39.6364C108.349 39.6364 106.957 39.428 105.793 39.0114C104.628 38.6042 103.657 38.0644 102.881 37.392C102.114 36.7292 101.503 36.0189 101.048 35.2614L103.719 33.3864C104.022 33.7841 104.405 34.2386 104.869 34.75C105.333 35.2708 105.968 35.7206 106.773 36.0994C107.587 36.4877 108.652 36.6818 109.969 36.6818C111.73 36.6818 113.184 36.2557 114.33 35.4034C115.475 34.5511 116.048 33.2159 116.048 31.3977V26.9659H115.764C115.518 27.3636 115.168 27.8561 114.713 28.4432C114.268 29.0208 113.624 29.5369 112.781 29.9915C111.948 30.4366 110.821 30.6591 109.401 30.6591C107.639 30.6591 106.058 30.2424 104.656 29.4091C103.264 28.5758 102.161 27.3636 101.347 25.7727C100.542 24.1818 100.139 22.25 100.139 19.9773C100.139 17.7424 100.532 15.7964 101.318 14.1392C102.104 12.4725 103.198 11.1847 104.599 10.2756C106.001 9.35701 107.62 8.89773 109.457 8.89773C110.878 8.89773 112.005 9.13447 112.838 9.60795C113.681 10.072 114.325 10.6023 114.77 11.1989C115.224 11.786 115.575 12.2689 115.821 12.6477H116.162V9.18182H119.401V31.625C119.401 33.5 118.974 35.0246 118.122 36.1989C117.279 37.3826 116.143 38.2491 114.713 38.7983C113.293 39.357 111.711 39.6364 109.969 39.6364ZM109.855 27.6477C111.2 27.6477 112.336 27.34 113.264 26.7244C114.192 26.1089 114.898 25.2235 115.381 24.0682C115.864 22.9129 116.105 21.5303 116.105 19.9205C116.105 18.3485 115.868 16.9612 115.395 15.7585C114.921 14.5559 114.221 13.6136 113.293 12.9318C112.365 12.25 111.219 11.9091 109.855 11.9091C108.435 11.9091 107.251 12.2689 106.304 12.9886C105.366 13.7083 104.661 14.6742 104.188 15.8864C103.723 17.0985 103.491 18.4432 103.491 19.9205C103.491 21.4356 103.728 22.7756 104.202 23.9403C104.685 25.0956 105.395 26.0047 106.332 26.6676C107.279 27.321 108.454 27.6477 109.855 27.6477ZM125.537 31V9.18182H128.776V12.4773H129.003C129.401 11.3977 130.12 10.5218 131.162 9.84943C132.204 9.17708 133.378 8.84091 134.685 8.84091C134.931 8.84091 135.239 8.84564 135.608 8.85511C135.977 8.86458 136.257 8.87879 136.446 8.89773V12.3068C136.332 12.2784 136.072 12.2358 135.665 12.179C135.267 12.1127 134.846 12.0795 134.401 12.0795C133.34 12.0795 132.393 12.3021 131.56 12.7472C130.736 13.1828 130.082 13.7888 129.599 14.5653C129.126 15.3324 128.889 16.2083 128.889 17.1932V31H125.537ZM146.84 31.5114C145.458 31.5114 144.203 31.2509 143.076 30.7301C141.949 30.1998 141.054 29.4375 140.391 28.4432C139.728 27.4394 139.397 26.2273 139.397 24.8068C139.397 23.5568 139.643 22.5436 140.136 21.767C140.628 20.9811 141.286 20.3655 142.11 19.9205C142.934 19.4754 143.843 19.1439 144.837 18.9261C145.841 18.6989 146.85 18.5189 147.863 18.3864C149.189 18.2159 150.263 18.0881 151.087 18.0028C151.921 17.9081 152.527 17.7519 152.906 17.5341C153.294 17.3163 153.488 16.9375 153.488 16.3977V16.2841C153.488 14.8826 153.104 13.7936 152.337 13.017C151.58 12.2405 150.429 11.8523 148.886 11.8523C147.285 11.8523 146.031 12.2027 145.121 12.9034C144.212 13.6042 143.573 14.3523 143.204 15.1477L140.022 14.0114C140.59 12.6856 141.348 11.6534 142.295 10.9148C143.251 10.1667 144.293 9.64583 145.42 9.35227C146.556 9.04924 147.674 8.89773 148.772 8.89773C149.473 8.89773 150.278 8.98295 151.187 9.15341C152.105 9.31439 152.991 9.65057 153.843 10.1619C154.705 10.6733 155.42 11.4451 155.988 12.4773C156.556 13.5095 156.84 14.892 156.84 16.625V31H153.488V28.0455H153.317C153.09 28.5189 152.711 29.0256 152.181 29.5653C151.651 30.1051 150.945 30.5644 150.065 30.9432C149.184 31.322 148.109 31.5114 146.84 31.5114ZM147.352 28.5C148.677 28.5 149.795 28.2396 150.704 27.7188C151.622 27.1979 152.314 26.5256 152.778 25.7017C153.251 24.8778 153.488 24.0114 153.488 23.1023V20.0341C153.346 20.2045 153.033 20.3608 152.55 20.5028C152.077 20.6354 151.528 20.7538 150.903 20.858C150.287 20.9527 149.686 21.0379 149.099 21.1136C148.521 21.1799 148.052 21.2367 147.692 21.2841C146.821 21.3977 146.007 21.5824 145.249 21.8381C144.501 22.0843 143.895 22.4583 143.431 22.9602C142.977 23.4527 142.749 24.125 142.749 24.9773C142.749 26.142 143.18 27.0227 144.042 27.6193C144.913 28.2064 146.016 28.5 147.352 28.5ZM172.675 9.18182V12.0227H160.913V9.18182H172.675ZM164.436 31V6.17045C164.436 4.92045 164.73 3.87879 165.317 3.04545C165.904 2.21212 166.666 1.58712 167.604 1.17045C168.541 0.753786 169.531 0.545453 170.572 0.545453C171.396 0.545453 172.069 0.611741 172.589 0.744318C173.11 0.876893 173.499 0.999998 173.754 1.11364L172.788 4.01136C172.618 3.95454 172.381 3.88352 172.078 3.7983C171.785 3.71307 171.396 3.67045 170.913 3.67045C169.805 3.67045 169.005 3.94981 168.513 4.50852C168.03 5.06723 167.788 5.88636 167.788 6.96591V31H164.436ZM177.373 31V9.18182H180.725V31H177.373ZM179.077 5.54545C178.424 5.54545 177.861 5.32292 177.387 4.87784C176.923 4.43277 176.691 3.89773 176.691 3.27273C176.691 2.64773 176.923 2.11269 177.387 1.66761C177.861 1.22254 178.424 1 179.077 1C179.731 1 180.29 1.22254 180.754 1.66761C181.227 2.11269 181.464 2.64773 181.464 3.27273C181.464 3.89773 181.227 4.43277 180.754 4.87784C180.29 5.32292 179.731 5.54545 179.077 5.54545ZM193.286 31.5114C191.903 31.5114 190.648 31.2509 189.521 30.7301C188.394 30.1998 187.5 29.4375 186.837 28.4432C186.174 27.4394 185.842 26.2273 185.842 24.8068C185.842 23.5568 186.089 22.5436 186.581 21.767C187.073 20.9811 187.732 20.3655 188.555 19.9205C189.379 19.4754 190.288 19.1439 191.283 18.9261C192.286 18.6989 193.295 18.5189 194.308 18.3864C195.634 18.2159 196.709 18.0881 197.533 18.0028C198.366 17.9081 198.972 17.7519 199.351 17.5341C199.739 17.3163 199.933 16.9375 199.933 16.3977V16.2841C199.933 14.8826 199.55 13.7936 198.783 13.017C198.025 12.2405 196.875 11.8523 195.331 11.8523C193.731 11.8523 192.476 12.2027 191.567 12.9034C190.658 13.6042 190.018 14.3523 189.649 15.1477L186.467 14.0114C187.036 12.6856 187.793 11.6534 188.74 10.9148C189.696 10.1667 190.738 9.64583 191.865 9.35227C193.001 9.04924 194.119 8.89773 195.217 8.89773C195.918 8.89773 196.723 8.98295 197.632 9.15341C198.551 9.31439 199.436 9.65057 200.288 10.1619C201.15 10.6733 201.865 11.4451 202.433 12.4773C203.001 13.5095 203.286 14.892 203.286 16.625V31H199.933V28.0455H199.763C199.536 28.5189 199.157 29.0256 198.626 29.5653C198.096 30.1051 197.391 30.5644 196.51 30.9432C195.629 31.322 194.554 31.5114 193.286 31.5114ZM193.797 28.5C195.123 28.5 196.24 28.2396 197.149 27.7188C198.068 27.1979 198.759 26.5256 199.223 25.7017C199.696 24.8778 199.933 24.0114 199.933 23.1023V20.0341C199.791 20.2045 199.479 20.3608 198.996 20.5028C198.522 20.6354 197.973 20.7538 197.348 20.858C196.732 20.9527 196.131 21.0379 195.544 21.1136C194.966 21.1799 194.498 21.2367 194.138 21.2841C193.267 21.3977 192.452 21.5824 191.695 21.8381C190.946 22.0843 190.34 22.4583 189.876 22.9602C189.422 23.4527 189.195 24.125 189.195 24.9773C189.195 26.142 189.625 27.0227 190.487 27.6193C191.358 28.2064 192.462 28.5 193.797 28.5Z" fill="#F1DBDB"/>
</svg>
